<svg width="30" height="30" viewBox="0 0 30 30" fill="none" xmlns="http://www.w3.org/2000/svg">
<g id="compose">
<path id="Vector" d="M26.375 3.625C25 2.25 22.625 2.25 21.125 3.625L11 13.5C10.125 14.375 9.5 15.5 9.25 16.75L8.75 19.5C8.625 19.875 8.75 20.375 9.125 20.625C9.375 20.875 9.625 21 10 21H10.25L13 20.5C14.25 20.25 15.375 19.625 16.25 18.75L26.375 8.75C27.125 8.125 27.5 7.125 27.5 6.125C27.5 5.125 27.125 4.25 26.375 3.625ZM24.625 7L24.125 7.5L22.375 5.875L22.875 5.375C23.125 5.125 23.5 5 23.75 5C24.125 5 24.375 5.125 24.625 5.375C24.875 5.625 25 5.875 25 6.125C25 6.375 25 6.75 24.625 7Z" fill="#222120"/>
<path id="Vector_2" d="M25 12.375C24.25 12.375 23.75 12.875 23.75 13.625V20C23.75 22.125 22.125 23.75 20 23.75H10C7.875 23.75 6.25 22.125 6.25 20V10C6.25 7.875 7.875 6.25 10 6.25H16.25C17 6.25 17.5 5.75 17.5 5C17.5 4.25 17 3.75 16.25 3.75H10C6.5 3.75 3.75 6.5 3.75 10V20C3.75 23.5 6.5 26.25 10 26.25H20C23.5 26.25 26.25 23.5 26.25 20V13.625C26.25 13 25.75 12.375 25 12.375Z" fill="#222120"/>
</g>
</svg>
