<svg width="28" height="28" viewBox="0 0 28 28" fill="none" xmlns="http://www.w3.org/2000/svg">
<path d="M20.1109 4.55536C21.1464 4.55536 21.6639 4.55536 22.0726 4.72453C22.3422 4.83624 22.5872 4.99998 22.7935 5.20637C22.9998 5.41277 23.1635 5.65779 23.2751 5.92744C23.4443 6.33578 23.4443 6.85328 23.4443 7.88869L23.4443 9.27786C23.4443 10.3133 23.4443 10.8308 23.2751 11.2391C23.1635 11.5088 22.9998 11.7538 22.7935 11.9602C22.5872 12.1666 22.3422 12.3303 22.0726 12.442C21.6643 12.6112 21.1464 12.6112 20.1109 12.6112L18.7222 12.6112C17.6868 12.6112 17.1689 12.6112 16.7605 12.442C16.216 12.2164 15.7835 11.7837 15.558 11.2391C15.3889 10.8308 15.3889 10.3133 15.3889 9.27786L15.3889 7.88869C15.3889 6.85328 15.3889 6.33578 15.558 5.92744C15.6696 5.65779 15.8333 5.41277 16.0396 5.20637C16.246 4.99998 16.4909 4.83624 16.7605 4.72453C17.1689 4.55536 17.6868 4.55536 18.7222 4.55536L20.1109 4.55536Z" fill="#F9F9F9"/>
<path fill-rule="evenodd" clip-rule="evenodd" d="M23.9997 7.8691L23.9997 9.29744C23.9997 9.79827 23.9997 10.2024 23.9772 10.5316C23.9543 10.8695 23.9055 11.1687 23.7884 11.452C23.5064 12.1325 22.9657 12.6731 22.2851 12.9549C22.0018 13.0724 21.7026 13.1212 21.3643 13.1441C21.0355 13.1666 20.6314 13.1666 20.1305 13.1666L18.7022 13.1666C18.2014 13.1666 17.7972 13.1666 17.468 13.1441C17.1301 13.1212 16.8309 13.0724 16.5476 12.9549C15.8672 12.673 15.3266 12.1324 15.0447 11.452C14.9272 11.1687 14.8784 10.8695 14.8555 10.5312C14.833 10.2024 14.833 9.79827 14.833 9.29744L14.833 7.8691C14.833 7.36827 14.833 6.96411 14.8555 6.63494C14.8784 6.29702 14.9272 5.99785 15.0447 5.71452C15.3265 5.03397 15.8671 4.49322 16.5476 4.21119C16.8309 4.09411 17.1301 4.04536 17.4684 4.02244C17.7968 3.99994 18.2009 3.99994 18.7018 3.99994L20.1301 3.99994C20.6309 3.99994 21.0351 3.99994 21.3643 4.02244C21.7022 4.04536 22.0014 4.09411 22.2847 4.21119C22.9653 4.49313 23.5061 5.03389 23.788 5.71452C23.9051 5.99786 23.9539 6.29702 23.9768 6.63536C23.9997 6.96369 23.9997 7.36827 23.9997 7.8691ZM22.8689 6.71077C22.8497 6.42911 22.8134 6.26494 22.7618 6.13994C22.678 5.9377 22.5552 5.75395 22.4005 5.59917C22.2457 5.44439 22.0619 5.32161 21.8597 5.23786C21.7347 5.18619 21.5705 5.15036 21.2889 5.13077C21.0022 5.11119 20.6359 5.11119 20.1109 5.11119L18.7218 5.11119C18.1968 5.11119 17.8301 5.11119 17.5439 5.13077C17.2622 5.14994 17.098 5.18619 16.973 5.23786C16.7708 5.32161 16.587 5.44439 16.4323 5.59917C16.2775 5.75395 16.1547 5.9377 16.0709 6.13994C16.0193 6.26494 15.9834 6.4291 15.9639 6.71077C15.9443 6.99744 15.9443 7.36369 15.9443 7.88869L15.9443 9.27785C15.9443 9.80285 15.9443 10.1695 15.9639 10.4558C15.983 10.7374 16.0193 10.9016 16.0709 11.0266C16.1547 11.2288 16.2775 11.4126 16.4323 11.5674C16.587 11.7222 16.7708 11.8449 16.973 11.9287C17.098 11.9804 17.2622 12.0162 17.5439 12.0358C17.8305 12.0554 18.1968 12.0554 18.7218 12.0554L20.1109 12.0554C20.6359 12.0554 21.0026 12.0554 21.2889 12.0358C21.5705 12.0166 21.7347 11.9804 21.8597 11.9287C22.0619 11.8449 22.2457 11.7222 22.4005 11.5674C22.5552 11.4126 22.678 11.2288 22.7618 11.0266C22.8134 10.9016 22.8493 10.7374 22.8689 10.4558C22.8884 10.1691 22.8884 9.80285 22.8884 9.27785L22.8884 7.88869C22.8884 7.36369 22.8884 6.99702 22.8689 6.71077Z" fill="#F9F9F9"/>
<path d="M20.1109 15.3887C21.1464 15.3887 21.6639 15.3887 22.0726 15.5579C22.3422 15.6696 22.5872 15.8333 22.7935 16.0397C22.9998 16.2461 23.1635 16.4912 23.2751 16.7608C23.4443 17.1691 23.4443 17.6866 23.4443 18.7221L23.4443 20.1112C23.4443 21.1466 23.4443 21.6641 23.2751 22.0725C23.1635 22.3421 22.9998 22.5872 22.7935 22.7936C22.5872 22.9999 22.3422 23.1637 22.0726 23.2754C21.6643 23.4446 21.1464 23.4446 20.1109 23.4446L18.7222 23.4446C17.6868 23.4446 17.1689 23.4446 16.7605 23.2754C16.216 23.0497 15.7835 22.617 15.558 22.0725C15.3889 21.6641 15.3889 21.1466 15.3889 20.1112L15.3889 18.7221C15.3889 17.6866 15.3889 17.1691 15.558 16.7608C15.7835 16.2163 16.216 15.7836 16.7605 15.5579C17.1689 15.3887 17.6868 15.3887 18.7222 15.3887L20.1109 15.3887Z" fill="#F9F9F9"/>
<path fill-rule="evenodd" clip-rule="evenodd" d="M23.9997 18.7025L23.9997 20.1308C23.9997 20.6316 23.9997 21.0358 23.9772 21.365C23.9543 21.7029 23.9055 22.0021 23.7884 22.2854C23.5065 22.966 22.9657 23.5068 22.2851 23.7887C22.0018 23.9058 21.7026 23.9546 21.3643 23.9775C21.0355 24 20.6314 24 20.1305 24L18.7022 24C18.2014 24 17.7972 24 17.468 23.9775C17.1301 23.9546 16.8309 23.9058 16.5476 23.7887C15.8671 23.5067 15.3265 22.966 15.0447 22.2854C14.9272 22.0021 14.8784 21.7029 14.8555 21.3646C14.833 21.0358 14.833 20.6316 14.833 20.1308L14.833 18.7025C14.833 18.2016 14.833 17.7975 14.8555 17.4683C14.8784 17.1304 14.9272 16.8312 15.0447 16.5479C15.3265 15.8673 15.8671 15.3266 16.5476 15.0446C16.8309 14.9275 17.1301 14.8787 17.4684 14.8558C17.7968 14.8333 18.2009 14.8333 18.7018 14.8333L20.1301 14.8333C20.6309 14.8333 21.0351 14.8333 21.3643 14.8558C21.7022 14.8787 22.0014 14.9275 22.2847 15.0446C22.9653 15.3265 23.5061 15.8673 23.788 16.5479C23.9051 16.8312 23.9539 17.1304 23.9768 17.4687C23.9997 17.7971 23.9997 18.2016 23.9997 18.7025ZM22.8689 17.5441C22.8497 17.2625 22.8134 17.0983 22.7618 16.9733C22.678 16.7711 22.5552 16.5873 22.4005 16.4325C22.2457 16.2778 22.0619 16.155 21.8597 16.0712C21.7347 16.0196 21.5705 15.9837 21.2889 15.9641C21.0022 15.9446 20.6359 15.9446 20.1109 15.9446L18.7218 15.9446C18.1968 15.9446 17.8301 15.9446 17.5439 15.9641C17.2622 15.9833 17.098 16.0196 16.973 16.0712C16.7708 16.155 16.587 16.2778 16.4323 16.4325C16.2775 16.5873 16.1547 16.7711 16.0709 16.9733C16.0193 17.0983 15.9834 17.2625 15.9639 17.5441C15.9443 17.8308 15.9443 18.1971 15.9443 18.7221L15.9443 20.1112C15.9443 20.6362 15.9443 21.0029 15.9639 21.2891C15.983 21.5708 16.0193 21.735 16.0709 21.86C16.1547 22.0622 16.2775 22.246 16.4323 22.4007C16.587 22.5555 16.7708 22.6783 16.973 22.7621C17.098 22.8137 17.2622 22.8496 17.5439 22.8691C17.8305 22.8887 18.1968 22.8887 18.7218 22.8887L20.1109 22.8887C20.6359 22.8887 21.0026 22.8887 21.2889 22.8691C21.5705 22.85 21.7347 22.8137 21.8597 22.7621C22.0619 22.6783 22.2457 22.5555 22.4005 22.4007C22.5552 22.246 22.678 22.0622 22.7618 21.86C22.8134 21.735 22.8493 21.5708 22.8689 21.2891C22.8884 21.0025 22.8884 20.6362 22.8884 20.1112L22.8884 18.7221C22.8884 18.1971 22.8884 17.8304 22.8689 17.5441Z" fill="#F9F9F9"/>
<rect x="12.6663" y="3.99994" width="20" height="9.33333" rx="4" transform="rotate(90 12.6663 3.99994)" fill="#F9F9F9"/>
</svg>
