<svg width="25" height="26" viewBox="0 0 25 26" fill="none" xmlns="http://www.w3.org/2000/svg">
<path fill-rule="evenodd" clip-rule="evenodd" d="M6.03004 9.42854C5.56214 8.55014 5.29869 7.55787 5.29869 6.50747C5.29869 2.91349 8.38291 0 12.1875 0V5.85888C12.7073 5.0076 13.4287 4.27727 14.3334 3.74783C17.4213 1.94085 21.4752 3.15826 23.3881 6.467L18.3261 9.42921C19.3216 9.45517 20.314 9.71859 21.2246 10.2436C24.324 12.0306 25.303 16.1715 23.4113 19.4925L18.345 16.5715C18.8129 17.4499 19.0763 18.4421 19.0763 19.4925C19.0763 23.0865 15.9921 26 12.1875 26V20.1411C11.6677 20.9924 10.9463 21.7227 10.0416 22.2522C6.95368 24.0592 2.89975 22.8417 0.986878 19.533L6.0489 16.5708C5.05344 16.5448 4.06104 16.2814 3.15037 15.7564C0.050985 13.9694 -0.928039 9.82852 0.963653 6.50747L6.03004 9.42854ZM12.1911 12.9851C12.1899 12.983 12.1887 12.9809 12.1875 12.9787L12.1875 12.9851C12.1887 12.9851 12.1899 12.9851 12.1911 12.9851ZM12.1875 13.0149V13.0213L12.1839 13.0149L12.1875 13.0149Z" fill="#1C1B20"/>
</svg>
