<svg width="26" height="27" viewBox="0 0 26 27" fill="none" xmlns="http://www.w3.org/2000/svg">
<path id="Vector" d="M23.4366 14.4863L22.5309 13.9629C22.562 13.5449 22.562 13.1251 22.5309 12.7071L23.4366 12.1837C23.8162 11.965 24.1489 11.6736 24.4159 11.3262C24.6828 10.9788 24.8786 10.5822 24.9921 10.159C25.1056 9.7359 25.1346 9.29453 25.0775 8.86017C25.0203 8.42581 24.8781 8.00698 24.6589 7.62762L23.5477 5.70182C23.1045 4.93675 22.3761 4.37851 21.5222 4.1494C20.6682 3.92028 19.7582 4.03896 18.9916 4.47945L18.0837 5.00396C17.7353 4.77347 17.3727 4.56525 16.998 4.38055V3.33375C16.998 2.44958 16.6468 1.60163 16.0216 0.976433C15.3964 0.351233 14.5484 0 13.6642 0L11.4417 0C10.5576 0 9.70962 0.351233 9.08442 0.976433C8.45922 1.60163 8.10799 2.44958 8.10799 3.33375V4.38055C7.73316 4.56704 7.37053 4.77712 7.0223 5.00952L6.1144 4.485C5.34776 4.04452 4.43779 3.92584 3.58381 4.15495C2.72984 4.38407 2.00148 4.9423 1.55828 5.70738L0.44703 7.63318C0.227888 8.01254 0.085668 8.43137 0.0285023 8.86573C-0.0286635 9.30009 0.000345783 9.74146 0.113872 10.1646C0.227397 10.5877 0.423213 10.9844 0.690123 11.3318C0.957033 11.6792 1.2898 11.9706 1.66941 12.1893L2.57507 12.7127C2.54396 13.1307 2.54396 13.5504 2.57507 13.9684L1.66941 14.4918C1.2898 14.7105 0.957033 15.0019 0.690123 15.3493C0.423213 15.6968 0.227397 16.0934 0.113872 16.5165C0.000345783 16.9397 -0.0286635 17.381 0.0285023 17.8154C0.085668 18.2497 0.227888 18.6686 0.44703 19.0479L1.55828 20.9737C2.00148 21.7388 2.72984 22.297 3.58381 22.5262C4.43779 22.7553 5.34776 22.6366 6.1144 22.1961L7.0223 21.6716C7.37083 21.9002 7.73345 22.1066 8.10799 22.2895V23.3363C8.10799 24.2204 8.45922 25.0684 9.08442 25.6936C9.70962 26.3188 10.5576 26.67 11.4417 26.67H13.6642C14.5484 26.67 15.3964 26.3188 16.0216 25.6936C16.6468 25.0684 16.998 24.2204 16.998 23.3363V22.2895C17.3728 22.103 17.7354 21.8929 18.0837 21.6605L18.9916 22.185C19.3709 22.4041 19.7898 22.5464 20.2241 22.6035C20.6585 22.6607 21.0999 22.6317 21.523 22.5182C21.9461 22.4046 22.3428 22.2088 22.6902 21.9419C23.0376 21.675 23.329 21.3422 23.5477 20.9626L24.6589 19.0368C25.0998 18.2712 25.2186 17.3618 24.9894 16.5086C24.7602 15.6553 24.2017 14.928 23.4366 14.4863ZM12.553 18.8913C11.4541 18.8913 10.3798 18.5654 9.4661 17.9549C8.55238 17.3443 7.84022 16.4766 7.41968 15.4613C6.99914 14.446 6.88911 13.3288 7.1035 12.251C7.31789 11.1732 7.84707 10.1832 8.62413 9.40614C9.40118 8.62908 10.3912 8.0999 11.469 7.88551C12.5468 7.67112 13.664 7.78116 14.6793 8.20169C15.6945 8.62223 16.5623 9.33439 17.1728 10.2481C17.7834 11.1618 18.1092 12.2361 18.1092 13.335C18.1075 14.8081 17.5215 16.2203 16.4799 17.2619C15.4383 18.3035 14.0261 18.8895 12.553 18.8913Z" fill="#F9F9F9"/>
</svg>
