<svg width="30" height="27" viewBox="0 0 30 27" fill="none" xmlns="http://www.w3.org/2000/svg">
<g id="Layer 2">
<path id="Vector" d="M26.67 10.3716C26.67 9.4925 26.4093 8.6331 25.9209 7.90213C25.4325 7.17115 24.7382 6.60142 23.926 6.26499C23.1138 5.92856 22.2201 5.84054 21.3578 6.01205C20.4956 6.18356 19.7036 6.6069 19.0819 7.22855C18.4603 7.85019 18.0369 8.64222 17.8654 9.50446C17.6939 10.3667 17.7819 11.2604 18.1184 12.0727C18.4548 12.8849 19.0245 13.5791 19.7555 14.0675C20.4865 14.5559 21.3459 14.8166 22.225 14.8166C23.4039 14.8166 24.5345 14.3483 25.3681 13.5147C26.2017 12.6811 26.67 11.5505 26.67 10.3716ZM20.7433 10.3716C20.7433 10.0786 20.8302 9.79213 20.993 9.54847C21.1558 9.30481 21.3873 9.1149 21.658 9.00276C21.9287 8.89061 22.2266 8.86127 22.5141 8.91844C22.8015 8.97561 23.0655 9.11673 23.2727 9.32394C23.4799 9.53116 23.621 9.79516 23.6782 10.0826C23.7354 10.37 23.706 10.6679 23.5939 10.9386C23.4817 11.2094 23.2918 11.4408 23.0482 11.6036C22.8045 11.7664 22.518 11.8533 22.225 11.8533C21.832 11.8533 21.4552 11.6972 21.1773 11.4193C20.8994 11.1415 20.7433 10.7646 20.7433 10.3716ZM22.225 16.2983C21.2444 16.2965 20.2732 16.4895 19.3678 16.8659C18.4623 17.2423 17.6406 17.7948 16.9503 18.4912C16.097 16.6572 14.6438 15.1691 12.8307 14.2725C11.0176 13.3759 8.9529 13.1244 6.97755 13.5595C5.00219 13.9946 3.23428 15.0904 1.9657 16.6658C0.697126 18.2413 0.00373015 20.2023 0 22.225V26.67H29.6333V23.7066C29.6333 21.7418 28.8528 19.8575 27.4635 18.4682C26.0742 17.0788 24.1898 16.2983 22.225 16.2983ZM17.78 23.7066C17.78 22.5278 18.2483 21.3971 19.0819 20.5635C19.9155 19.7299 21.0461 19.2616 22.225 19.2616C23.4039 19.2616 24.5345 19.7299 25.3681 20.5635C26.2017 21.3971 26.67 22.5278 26.67 23.7066H17.78Z" fill="#F9F9F9"/>
<path id="Vector_2" d="M8.88998 11.8533C12.1632 11.8533 14.8167 9.19987 14.8167 5.92667C14.8167 2.65346 12.1632 0 8.88998 0C5.61678 0 2.96332 2.65346 2.96332 5.92667C2.96332 9.19987 5.61678 11.8533 8.88998 11.8533Z" fill="#F9F9F9"/>
</g>
</svg>
