<svg width="27" height="27" viewBox="0 0 27 27" fill="none" xmlns="http://www.w3.org/2000/svg">
<g id="Sign Out">
<path id="Vector (Stroke)" fill-rule="evenodd" clip-rule="evenodd" d="M9.42547 8.0754C8.93719 7.58724 8.14563 7.58735 7.65748 8.07563L3.28308 12.4512C2.79502 12.9394 2.79502 13.7307 3.28308 14.2189L7.65748 18.5945C8.14563 19.0828 8.93719 19.0829 9.42547 18.5947C9.91375 18.1066 9.91385 17.315 9.4257 16.8267L5.93495 13.3351L9.4257 9.84338C9.91385 9.3551 9.91375 8.56355 9.42547 8.0754Z" fill="#241E4E"/>
<path id="Vector (Stroke)_2" fill-rule="evenodd" clip-rule="evenodd" d="M17.0854 13.335C17.0854 12.6446 16.5257 12.0848 15.8353 12.0848H4.17019C3.47975 12.0848 2.92003 12.6446 2.92003 13.335C2.92003 14.0254 3.47975 14.5852 4.17019 14.5852H15.8353C16.5257 14.5852 17.0854 14.0254 17.0854 13.335Z" fill="#241E4E"/>
<path id="Vector (Stroke)_3" fill-rule="evenodd" clip-rule="evenodd" d="M21.2526 5.4173H15.8353C15.1448 5.4173 14.5851 4.85759 14.5851 4.16715C14.5851 3.47671 15.1448 2.91699 15.8353 2.91699H21.6693C22.2219 2.91699 22.7519 3.13651 23.1427 3.52726C23.5334 3.91801 23.7529 4.44798 23.7529 5.00059V21.6693C23.7529 22.2219 23.5334 22.7519 23.1427 23.1427C22.7519 23.5334 22.2219 23.7529 21.6693 23.7529H15.8353C15.1448 23.7529 14.5851 23.1932 14.5851 22.5028C14.5851 21.8123 15.1448 21.2526 15.8353 21.2526H21.2526V5.4173Z" fill="#241E4E"/>
</g>
</svg>
